<svg width="178.000000" height="24.000000" viewBox="0 0 178 24" fill="none" xmlns="http://www.w3.org/2000/svg" xmlns:xlink="http://www.w3.org/1999/xlink">
	<desc>
			Created with Pixso.
	</desc>
	<defs>
		<clipPath id="clip985_12523">
			<rect id="965184-200 2" rx="0.000000" width="17.844999" height="17.844999" transform="translate(0.077500 3.077500)" fill="white" fill-opacity="0"/>
		</clipPath>
	</defs>
	<rect id="Frame 233" rx="0.000000" width="177.000000" height="23.000000" transform="translate(0.500000 0.500000)" fill="#FFFFFF" fill-opacity="0"/>
	<rect id="965184-200 2" rx="0.000000" width="17.844999" height="17.844999" transform="translate(0.077500 3.077500)" fill="#FFFFFF" fill-opacity="0"/>
	<g clip-path="url(#clip985_12523)">
		<path id="Vector" d="M6.06 3.24C5.98 3.38 5.73 3.88 5.5 4.35L5.08 5.19L4.2 5.43C3.38 5.67 3.29 5.71 2.91 6.14C2.48 6.62 2.52 6.6 0.99 6.83L-0.03 6.98L0.02 7.59C0.08 8.26 0.34 8.93 0.65 9.28C1.07 9.72 1.5 9.85 2.79 9.94C3.45 9.99 4.03 10.05 4.05 10.09C4.08 10.12 4.44 11.14 4.85 12.36L5.59 14.56L4.66 16.67C4.14 17.83 3.66 18.81 3.59 18.84C3.51 18.88 3.29 18.95 3.08 19.01C2.6 19.14 2.17 19.5 1.97 19.96C1.75 20.43 1.75 20.59 1.97 20.82C2.15 20.99 2.27 21 4.44 21L6.72 21L6.68 20.78C6.65 20.62 6.7 20.53 6.89 20.4C7.02 20.3 7.29 20.09 7.48 19.91C7.91 19.49 7.92 19.23 7.54 18.48C7.26 17.94 7.24 17.85 7.25 17.04C7.25 16.57 7.29 15.86 7.33 15.46C7.42 14.54 7.29 14.25 6.66 13.94C6.1 13.65 5.76 13.24 5.76 12.85C5.76 12.59 5.79 12.54 6.03 12.49C6.19 12.45 6.43 12.27 6.66 12C6.91 11.7 7.14 11.52 7.4 11.43L7.78 11.3L7.83 10.71L7.87 10.11L8.65 10.79C9.54 11.55 9.83 12.05 10.12 13.21C10.42 14.42 10.8 14.87 12.14 15.56C13.59 16.29 14.38 17.25 14.55 18.49C14.61 18.91 14.83 18.95 15.16 18.61C15.48 18.29 15.45 17.83 15.01 16.55C14.66 15.58 14.62 15.36 14.6 14.53L14.58 13.61L13.64 12.59C12.53 11.38 12.14 11.01 10.89 10.02C9.78 9.12 9.06 8.41 8.77 7.91C8.65 7.7 8.31 6.96 8.01 6.25C7.21 4.39 6.5 3 6.33 3C6.26 3 6.13 3.1 6.06 3.24Z" fill="#3E3E3E" fill-opacity="1.000000" fill-rule="nonzero"/>
		<path id="Vector" d="M15.96 10.6C15.93 10.67 15.95 10.93 16.01 11.18C16.06 11.44 16.1 11.93 16.1 12.29C16.1 12.91 16.11 12.95 16.37 13.09C16.58 13.21 16.64 13.31 16.64 13.52C16.64 13.87 16.39 14.01 15.93 13.93C15.62 13.88 15.58 13.89 15.53 14.11C15.45 14.42 15.62 15.31 15.9 16.09C16.42 17.56 16.49 18.17 16.2 18.79C15.98 19.28 15.66 19.55 15.12 19.74C14.78 19.84 14.59 19.98 14.4 20.26C14.22 20.51 14 20.67 13.66 20.81L13.18 21L14.28 20.97C15.25 20.93 15.43 20.9 15.88 20.69C16.48 20.38 16.95 19.82 17.15 19.12C17.35 18.46 17.28 17.48 17.01 16.92C16.8 16.47 16.8 16.48 17.23 15.9C17.76 15.21 17.94 14.65 17.94 13.75C17.94 13.12 17.9 12.83 17.73 12.45C17.49 11.85 16.8 10.79 16.53 10.6C16.29 10.43 16.02 10.43 15.96 10.6Z" fill="#3E3E3E" fill-opacity="1.000000" fill-rule="nonzero"/>
		<path id="Vector" d="M9.93 17.25C9.42 17.48 9.2 17.89 8.87 19.28C8.7 19.98 8.49 20.65 8.42 20.77L8.27 21L8.7 21C9.07 21 9.1 20.98 8.96 20.88C8.81 20.78 8.81 20.73 8.9 20.55C9.03 20.3 9.35 20.18 9.87 20.18L10.28 20.18L9.91 19.91C9.41 19.56 9.23 19.19 9.3 18.67C9.42 17.82 10.01 17.32 10.93 17.3C11.29 17.29 11.33 17.27 11.15 17.21C10.8 17.1 10.24 17.12 9.93 17.25Z" fill="#3E3E3E" fill-opacity="1.000000" fill-rule="nonzero"/>
	</g>
	<path id="Территория ZOO" d="M95.65 15.36Q96.24 14.04 96.24 12.27Q96.24 10.49 95.65 9.17Q95.32 8.42 94.78 7.85Q94.38 7.43 93.86 7.12Q92.67 6.39 90.81 6.39Q88.94 6.39 87.73 7.12Q87.2 7.45 86.78 7.89Q86.26 8.43 85.94 9.16Q85.36 10.48 85.36 12.25Q85.36 14.03 85.94 15.35Q86.27 16.11 86.81 16.68Q87.21 17.1 87.73 17.42Q88.94 18.16 90.79 18.16Q92.67 18.16 93.86 17.42Q94.39 17.1 94.8 16.66Q95.32 16.1 95.65 15.36ZM27.42 18L29.83 18L29.83 8.59L32.94 8.59L32.94 6.57L24.32 6.57L24.32 8.59L27.42 8.59L27.42 18ZM34.7 18L41.27 18L41.27 16L37.11 16L37.11 13.05L40.99 13.05L40.99 11.07L37.11 11.07L37.11 8.55L41.27 8.55L41.27 6.57L34.7 6.57L34.7 18ZM50.53 7.52Q49.52 6.57 47.31 6.57L43.66 6.57L43.66 18L46.07 18L46.07 13.93L47.11 13.93Q48.78 13.93 49.75 13.41Q50.56 12.96 50.99 12.27Q51.06 12.14 51.13 12Q51.28 11.68 51.38 11.35Q51.55 10.77 51.55 10.14Q51.55 8.86 50.95 8Q50.77 7.74 50.53 7.52ZM60.58 7.52Q59.56 6.57 57.36 6.57L53.71 6.57L53.71 18L56.12 18L56.12 13.93L57.16 13.93Q58.83 13.93 59.79 13.41Q60.61 12.96 61.03 12.27Q61.11 12.14 61.18 12Q61.33 11.68 61.43 11.35Q61.6 10.77 61.6 10.14Q61.6 8.86 60.99 8Q60.81 7.74 60.58 7.52ZM65.93 6.57L63.76 6.57L63.76 18L66.67 18L71.96 9.24L72.03 9.24Q72.01 9.35 71.99 9.71Q71.96 10.07 71.94 10.55Q71.92 11.03 71.9 11.55Q71.88 12.07 71.88 12.51L71.88 18L74.04 18L74.04 6.57L71.15 6.57L65.87 15.24L65.82 15.24Q65.83 15.12 65.85 14.77Q65.87 14.43 65.88 13.96Q65.9 13.48 65.92 12.99Q65.93 12.49 65.93 12.09L65.93 6.57ZM78.91 18L81.32 18L81.32 8.59L84.43 8.59L84.43 6.57L75.8 6.57L75.8 8.59L78.91 8.59L78.91 18ZM105.48 7.52Q104.46 6.57 102.25 6.57L98.6 6.57L98.6 18L101.02 18L101.02 13.93L102.06 13.93Q103.72 13.93 104.69 13.41Q105.51 12.96 105.93 12.27Q106.01 12.14 106.07 12Q106.23 11.68 106.32 11.35Q106.49 10.77 106.49 10.14Q106.49 8.86 105.89 8Q105.71 7.74 105.48 7.52ZM110.83 6.57L108.65 6.57L108.65 18L111.56 18L116.86 9.24L116.92 9.24Q116.91 9.35 116.88 9.71Q116.86 10.07 116.84 10.55Q116.81 11.03 116.79 11.55Q116.78 12.07 116.78 12.51L116.78 18L118.94 18L118.94 6.57L116.04 6.57L110.76 15.24L110.72 15.24Q110.73 15.12 110.75 14.77Q110.76 14.43 110.78 13.96Q110.8 13.48 110.81 12.99Q110.83 12.49 110.83 12.09L110.83 6.57ZM122.99 18L125.66 13.61L127.16 13.61L127.16 18L129.58 18L129.58 6.57L125.87 6.57Q123.82 6.57 122.68 7.41Q122.27 7.72 122.01 8.12Q121.55 8.83 121.55 9.83Q121.55 10.76 121.85 11.4Q122.16 12.03 122.62 12.41Q123.08 12.78 123.55 12.97L120.3 18L122.99 18ZM88.59 15.09Q87.9 14.06 87.9 12.27Q87.9 10.46 88.59 9.44Q88.77 9.17 89.01 8.97Q89.68 8.41 90.81 8.41Q91.95 8.41 92.62 8.98Q92.85 9.17 93.02 9.44Q93.69 10.46 93.69 12.27Q93.69 14.06 93.02 15.09Q92.85 15.36 92.62 15.55Q91.95 16.12 90.79 16.12Q89.7 16.12 89.04 15.59Q88.78 15.38 88.59 15.09ZM46.07 8.55L47.18 8.55Q48.27 8.55 48.74 9.1Q49.1 9.5 49.1 10.22Q49.1 10.9 48.76 11.3Q48.65 11.44 48.5 11.54Q47.9 11.95 46.88 11.95L46.07 11.95L46.07 8.55ZM56.12 8.55L57.23 8.55Q58.32 8.55 58.79 9.1Q59.15 9.5 59.15 10.22Q59.15 10.9 58.81 11.3Q58.7 11.44 58.54 11.54Q57.95 11.95 56.92 11.95L56.12 11.95L56.12 8.55ZM101.02 8.55L102.12 8.55Q103.22 8.55 103.69 9.1Q104.04 9.5 104.04 10.22Q104.04 10.9 103.71 11.3Q103.59 11.44 103.44 11.54Q102.84 11.95 101.82 11.95L101.02 11.95L101.02 8.55ZM124.52 8.89Q125.04 8.55 125.97 8.55L127.16 8.55L127.16 11.64L126.03 11.64Q125 11.64 124.5 11.21Q124.33 11.06 124.22 10.88Q124 10.52 124 10.01Q124 9.42 124.29 9.09Q124.39 8.97 124.52 8.89Z" fill="#202223" fill-opacity="1.000000" fill-rule="evenodd"/>
	<path id="Территория ZOO" d="M151.11 6.2C154.19 6.2 156.56 8.37 156.56 12.18C156.56 15.98 154.19 18.16 151.11 18.16C148.01 18.16 145.66 15.97 145.66 12.18C145.66 8.37 148.01 6.2 151.11 6.2ZM163.62 6.2C166.71 6.2 169.07 8.37 169.07 12.18C169.07 15.98 166.71 18.16 163.62 18.16C160.52 18.16 158.17 15.97 158.17 12.18C158.17 8.37 160.52 6.2 163.62 6.2ZM144.53 18L135.62 18L135.62 16.53L141.42 8.39L135.6 8.39L135.6 6.36L144.51 6.36L144.51 7.82L138.7 15.97L144.53 15.97L144.53 18ZM151.11 15.98C152.89 15.98 154.07 14.64 154.07 12.18C154.07 9.71 152.89 8.37 151.11 8.37C149.32 8.37 148.16 9.71 148.16 12.18C148.16 14.64 149.32 15.98 151.11 15.98ZM163.62 15.98C165.41 15.98 166.58 14.64 166.58 12.18C166.58 9.71 165.41 8.37 163.62 8.37C161.83 8.37 160.67 9.71 160.67 12.18C160.67 14.64 161.83 15.98 163.62 15.98Z" fill="#008060" fill-opacity="1.000000" fill-rule="evenodd"/>
</svg>
