<svg width="184.000000" height="24.000000" viewBox="0 0 184 24" fill="none" xmlns="http://www.w3.org/2000/svg" xmlns:xlink="http://www.w3.org/1999/xlink">
	<desc>
			Created with Pixso.
	</desc>
	<defs>
		<clipPath id="clip430_16785">
			<rect id="965184-200 2" rx="0.000000" width="23.844999" height="23.844999" transform="translate(0.077500 0.077500)" fill="white" fill-opacity="0"/>
		</clipPath>
	</defs>
	<rect id="Frame 232" rx="0.000000" width="183.000000" height="23.000000" transform="translate(0.500000 0.500000)" fill="#FFFFFF" fill-opacity="0"/>
	<rect id="965184-200 2" rx="0.000000" width="23.844999" height="23.844999" transform="translate(0.077500 0.077500)" fill="#FFFFFF" fill-opacity="0"/>
	<g clip-path="url(#clip430_16785)">
		<path id="Vector" d="M8.08 0.32C7.97 0.51 7.64 1.17 7.34 1.8L6.77 2.92L5.6 3.25C4.51 3.56 4.39 3.62 3.88 4.18C3.31 4.83 3.35 4.81 1.33 5.11L-0.04 5.31L0.03 6.13C0.1 7.02 0.45 7.91 0.87 8.37C1.42 8.96 2 9.14 3.71 9.26C4.6 9.32 5.37 9.4 5.41 9.45C5.44 9.5 5.92 10.86 6.46 12.48L7.46 15.41L6.21 18.22C5.53 19.77 4.88 21.08 4.78 21.13C4.69 21.17 4.39 21.27 4.11 21.34C3.46 21.52 2.9 22 2.62 22.62C2.33 23.24 2.33 23.46 2.63 23.76C2.86 23.98 3.03 24 5.92 24L8.96 24L8.91 23.71C8.86 23.49 8.93 23.37 9.19 23.2C9.37 23.07 9.73 22.78 9.98 22.54C10.56 21.99 10.57 21.64 10.05 20.63C9.68 19.93 9.65 19.79 9.67 18.73C9.67 18.09 9.71 17.14 9.77 16.62C9.89 15.39 9.73 15.01 8.89 14.59C8.13 14.2 7.67 13.65 7.67 13.13C7.67 12.79 7.72 12.73 8.04 12.65C8.25 12.61 8.58 12.36 8.87 12C9.21 11.6 9.52 11.36 9.87 11.24L10.37 11.07L10.43 10.28L10.5 9.47L11.54 10.39C12.71 11.39 13.11 12.07 13.5 13.62C13.89 15.24 14.41 15.84 16.19 16.75C18.11 17.72 19.17 19 19.4 20.66C19.48 21.21 19.77 21.27 20.21 20.82C20.65 20.38 20.6 19.77 20.01 18.07C19.56 16.77 19.5 16.48 19.47 15.38L19.45 14.14L18.19 12.79C16.71 11.18 16.18 10.69 14.53 9.36C13.04 8.17 12.08 7.22 11.69 6.55C11.54 6.27 11.08 5.29 10.69 4.34C9.62 1.86 8.67 0 8.44 0C8.35 0 8.18 0.14 8.08 0.32Z" fill="#FFFFFF" fill-opacity="1.000000" fill-rule="nonzero"/>
		<path id="Vector" d="M21.28 10.14C21.25 10.23 21.27 10.58 21.34 10.92C21.41 11.25 21.48 11.91 21.48 12.39C21.48 13.22 21.49 13.27 21.83 13.46C22.11 13.62 22.2 13.75 22.2 14.02C22.2 14.49 21.86 14.68 21.25 14.58C20.83 14.5 20.78 14.53 20.71 14.82C20.6 15.22 20.83 16.41 21.2 17.46C21.89 19.41 21.99 20.23 21.61 21.06C21.31 21.7 20.89 22.06 20.16 22.32C19.71 22.46 19.46 22.64 19.21 23.01C18.95 23.35 18.67 23.56 18.21 23.74L17.58 24.01L19.04 23.96C20.33 23.91 20.58 23.88 21.18 23.59C21.98 23.18 22.6 22.42 22.87 21.5C23.13 20.61 23.05 19.3 22.69 18.56C22.4 17.96 22.4 17.97 22.98 17.2C23.68 16.28 23.92 15.54 23.92 14.34C23.92 13.5 23.86 13.11 23.65 12.6C23.32 11.8 22.4 10.39 22.04 10.14C21.72 9.91 21.37 9.91 21.28 10.14Z" fill="#FFFFFF" fill-opacity="1.000000" fill-rule="nonzero"/>
		<path id="Vector" d="M13.24 19C12.56 19.3 12.27 19.86 11.83 21.7C11.6 22.64 11.32 23.54 11.23 23.7L11.04 24L11.6 24C12.09 24 12.14 23.97 11.95 23.84C11.76 23.71 11.74 23.63 11.86 23.41C12.04 23.07 12.46 22.91 13.16 22.91L13.71 22.91L13.22 22.56C12.55 22.08 12.31 21.58 12.4 20.9C12.56 19.76 13.35 19.1 14.58 19.06C15.06 19.05 15.12 19.03 14.87 18.95C14.41 18.8 13.65 18.82 13.24 19Z" fill="#FFFFFF" fill-opacity="1.000000" fill-rule="nonzero"/>
	</g>
	<path id="Территория ZOO" d="" fill="#202223" fill-opacity="1.000000" fill-rule="evenodd"/>
	<path id="Территория ZOO" d="M157.11 6.2C160.19 6.2 162.56 8.37 162.56 12.18C162.56 15.98 160.19 18.16 157.11 18.16C154.01 18.16 151.66 15.97 151.66 12.18C151.66 8.37 154.01 6.2 157.11 6.2ZM169.62 6.2C172.71 6.2 175.07 8.37 175.07 12.18C175.07 15.98 172.71 18.16 169.62 18.16C166.52 18.16 164.17 15.97 164.17 12.18C164.17 8.37 166.52 6.2 169.62 6.2ZM150.53 18L141.62 18L141.62 16.53L147.42 8.39L141.6 8.39L141.6 6.36L150.51 6.36L150.51 7.82L144.7 15.97L150.53 15.97L150.53 18ZM101.65 15.36Q102.24 14.04 102.24 12.27C102.24 11.08 102.04 10.05 101.65 9.17C101.26 8.29 100.67 7.61 99.86 7.12C99.07 6.64 98.05 6.39 96.81 6.39C95.56 6.39 94.54 6.64 93.73 7.12Q93.2 7.45 92.78 7.89Q92.26 8.43 91.94 9.16C91.55 10.04 91.36 11.07 91.36 12.25C91.36 13.44 91.55 14.47 91.94 15.35Q92.27 16.11 92.81 16.68Q93.21 17.1 93.73 17.42C94.54 17.91 95.56 18.16 96.79 18.16Q98.67 18.16 99.86 17.42C100.67 16.93 101.26 16.24 101.65 15.36ZM33.42 18L35.83 18L35.83 8.59L38.94 8.59L38.94 6.57L30.32 6.57L30.32 8.59L33.42 8.59L33.42 18ZM40.7 18L47.27 18L47.27 16L43.11 16L43.11 13.05L46.99 13.05L46.99 11.07L43.11 11.07L43.11 8.55L47.27 8.55L47.27 6.57L40.7 6.57L40.7 18ZM56.53 7.52Q55.52 6.57 53.31 6.57L49.66 6.57L49.66 18L52.07 18L52.07 13.93L53.11 13.93Q54.78 13.93 55.75 13.41C56.39 13.05 56.85 12.58 57.13 12C57.41 11.42 57.55 10.8 57.55 10.14Q57.55 8.86 56.95 8Q56.77 7.74 56.53 7.52ZM66.58 7.52Q65.56 6.57 63.36 6.57L59.71 6.57L59.71 18L62.12 18L62.12 13.93L63.16 13.93C64.27 13.93 65.15 13.76 65.79 13.41C66.44 13.05 66.9 12.58 67.18 12C67.46 11.42 67.6 10.8 67.6 10.14C67.6 9.03 67.26 8.16 66.58 7.52ZM71.93 6.57L69.76 6.57L69.76 18L72.67 18L77.96 9.24L78.03 9.24C78.02 9.32 78 9.47 77.99 9.71C77.97 9.95 77.96 10.23 77.94 10.55C77.92 10.87 77.91 11.21 77.9 11.55C77.89 11.9 77.88 12.22 77.88 12.51L77.88 18L80.04 18L80.04 6.57L77.15 6.57L71.87 15.24L71.82 15.24C71.83 15.16 71.84 15 71.85 14.77C71.86 14.54 71.87 14.27 71.88 13.96C71.89 13.64 71.91 13.32 71.92 12.99C71.93 12.66 71.93 12.36 71.93 12.09L71.93 6.57ZM84.91 18L87.32 18L87.32 8.59L90.43 8.59L90.43 6.57L81.8 6.57L81.8 8.59L84.91 8.59L84.91 18ZM111.48 7.52Q110.46 6.57 108.25 6.57L104.6 6.57L104.6 18L107.02 18L107.02 13.93L108.06 13.93C109.17 13.93 110.05 13.76 110.69 13.41C111.34 13.05 111.8 12.58 112.07 12C112.35 11.42 112.49 10.8 112.49 10.14C112.49 9.03 112.15 8.16 111.48 7.52ZM116.83 6.57L114.65 6.57L114.65 18L117.56 18L122.86 9.24L122.92 9.24C122.91 9.32 122.9 9.47 122.88 9.71C122.87 9.95 122.85 10.23 122.84 10.55C122.82 10.87 122.81 11.21 122.79 11.55C122.78 11.9 122.78 12.22 122.78 12.51L122.78 18L124.94 18L124.94 6.57L122.04 6.57L116.76 15.24L116.72 15.24C116.73 15.16 116.74 15 116.75 14.77C116.76 14.54 116.77 14.27 116.78 13.96C116.79 13.64 116.8 13.32 116.81 12.99C116.82 12.66 116.83 12.36 116.83 12.09L116.83 6.57ZM128.99 18L131.66 13.61L133.16 13.61L133.16 18L135.58 18L135.58 6.57L131.87 6.57C130.5 6.57 129.44 6.85 128.68 7.41Q128.27 7.72 128.01 8.12Q127.55 8.83 127.55 9.83C127.55 10.45 127.65 10.98 127.85 11.4C128.06 11.82 128.31 12.15 128.62 12.41C128.93 12.66 129.24 12.84 129.55 12.97L126.3 18L128.99 18ZM157.11 15.98C158.89 15.98 160.07 14.64 160.07 12.18C160.07 9.71 158.89 8.37 157.11 8.37C155.32 8.37 154.16 9.71 154.16 12.18C154.16 14.64 155.32 15.98 157.11 15.98ZM169.62 15.98C171.41 15.98 172.58 14.64 172.58 12.18C172.58 9.71 171.41 8.37 169.62 8.37C167.83 8.37 166.67 9.71 166.67 12.18C166.67 14.64 167.83 15.98 169.62 15.98ZM94.59 15.09C94.13 14.4 93.9 13.46 93.9 12.27C93.9 11.06 94.13 10.12 94.59 9.44C95.05 8.75 95.79 8.41 96.81 8.41C97.84 8.41 98.57 8.75 99.02 9.44C99.47 10.12 99.69 11.06 99.69 12.27C99.69 13.46 99.47 14.4 99.02 15.09Q98.85 15.36 98.62 15.55Q97.95 16.12 96.79 16.12C95.78 16.12 95.05 15.78 94.59 15.09ZM52.07 8.55L53.18 8.55Q54.27 8.55 54.74 9.1Q55.1 9.5 55.1 10.22Q55.1 10.9 54.76 11.3Q54.65 11.44 54.5 11.54C54.1 11.81 53.56 11.95 52.88 11.95L52.07 11.95L52.07 8.55ZM62.12 8.55L63.23 8.55C64.51 8.55 65.15 9.11 65.15 10.22C65.15 10.83 64.95 11.27 64.54 11.54C64.15 11.81 63.61 11.95 62.92 11.95L62.12 11.95L62.12 8.55ZM107.02 8.55L108.12 8.55C109.4 8.55 110.04 9.11 110.04 10.22C110.04 10.83 109.84 11.27 109.44 11.54C109.04 11.81 108.5 11.95 107.82 11.95L107.02 11.95L107.02 8.55ZM130.52 8.89C130.86 8.67 131.35 8.55 131.97 8.55L133.16 8.55L133.16 11.64L132.03 11.64C131.35 11.64 130.84 11.5 130.5 11.21Q130.33 11.06 130.22 10.88Q130 10.52 130 10.01C130 9.49 130.17 9.11 130.52 8.89Z" fill="#FFFFFF" fill-opacity="1.000000" fill-rule="evenodd"/>
</svg>
