<svg width="18.000000" height="18.000000" viewBox="0 0 18 18" fill="none" xmlns="http://www.w3.org/2000/svg" xmlns:xlink="http://www.w3.org/1999/xlink">
	<desc>
			Created with Pixso.
	</desc>
	<defs>
		<clipPath id="clip430_16777">
			<rect id="instagram-2-1 1" rx="0.000000" width="17.993462" height="17.993462" transform="translate(0.003269 0.003269)" fill="white" fill-opacity="0"/>
		</clipPath>
		<radialGradient gradientTransform="translate(1.16494 17.6057) rotate(0) scale(22.8533 22.8533)" cx="0.000000" cy="0.000000" r="1.000000" id="paint_radial_430_16778_0" gradientUnits="userSpaceOnUse">
			<stop offset="0.090000" stop-color="#FA8F21"/>
			<stop offset="0.780000" stop-color="#D82D7E"/>
		</radialGradient>
		<radialGradient gradientTransform="translate(12.468 17.0277) rotate(0) scale(20.1111 20.1111)" cx="0.000000" cy="0.000000" r="1.000000" id="paint_radial_430_16779_0" gradientUnits="userSpaceOnUse">
			<stop offset="0.640000" stop-color="#8C3AAA" stop-opacity="0.000000"/>
			<stop offset="1.000000" stop-color="#8C3AAA"/>
		</radialGradient>
	</defs>
	<rect id="instagram-2-1 1" rx="0.000000" width="17.993462" height="17.993462" transform="translate(0.003269 0.003269)" fill="#FFFFFF" fill-opacity="0"/>
	<g clip-path="url(#clip430_16777)">
		<path id="Vector" d="M4.56 17.93C3.49 17.88 2.91 17.7 2.52 17.55C2.01 17.35 1.64 17.12 1.26 16.73C0.87 16.35 0.64 15.98 0.44 15.47C0.29 15.08 0.11 14.5 0.06 13.43C0.01 12.27 0 11.93 0 9C0 6.06 0.01 5.72 0.06 4.56C0.11 3.49 0.29 2.91 0.44 2.52C0.64 2.01 0.87 1.64 1.26 1.26C1.64 0.87 2.01 0.63 2.52 0.44C2.91 0.29 3.49 0.11 4.56 0.06C5.72 0.01 6.06 0 8.99 0C11.93 0 12.27 0.01 13.43 0.06C14.5 0.11 15.08 0.29 15.47 0.44C15.98 0.63 16.35 0.87 16.73 1.26C17.12 1.64 17.35 2.01 17.55 2.52C17.7 2.91 17.88 3.49 17.93 4.56C17.98 5.72 18 6.06 18 9C18 11.93 17.98 12.27 17.93 13.43C17.88 14.5 17.7 15.08 17.55 15.47C17.35 15.98 17.12 16.35 16.73 16.73C16.35 17.12 15.98 17.35 15.47 17.55C15.08 17.7 14.5 17.88 13.43 17.93C12.27 17.98 11.93 18 8.99 18C6.06 18 5.72 17.98 4.56 17.93Z" fill="url(#paint_radial_430_16778_0)" fill-opacity="1.000000" fill-rule="nonzero"/>
		<path id="Vector" d="M4.56 17.93C3.49 17.88 2.91 17.7 2.52 17.55C2.01 17.35 1.64 17.12 1.26 16.73C0.87 16.35 0.64 15.98 0.44 15.47C0.29 15.08 0.11 14.5 0.06 13.43C0.01 12.27 0 11.93 0 9C0 6.06 0.01 5.72 0.06 4.56C0.11 3.49 0.29 2.91 0.44 2.52C0.64 2.01 0.87 1.64 1.26 1.26C1.64 0.87 2.01 0.63 2.52 0.44C2.91 0.29 3.49 0.11 4.56 0.06C5.72 0.01 6.06 0 8.99 0C11.93 0 12.27 0.01 13.43 0.06C14.5 0.11 15.08 0.29 15.47 0.44C15.98 0.63 16.35 0.87 16.73 1.26C17.12 1.64 17.35 2.01 17.55 2.52C17.7 2.91 17.88 3.49 17.93 4.56C17.98 5.72 18 6.06 18 9C18 11.93 17.98 12.27 17.93 13.43C17.88 14.5 17.7 15.08 17.55 15.47C17.35 15.98 17.12 16.35 16.73 16.73C16.35 17.12 15.98 17.35 15.47 17.55C15.08 17.7 14.5 17.88 13.43 17.93C12.27 17.98 11.93 18 8.99 18C6.06 18 5.72 17.98 4.56 17.93Z" fill="url(#paint_radial_430_16779_0)" fill-opacity="1.000000" fill-rule="nonzero"/>
		<path id="Vector" d="M6.78 9.03C6.78 7.8 7.78 6.8 9.01 6.8C10.24 6.8 11.24 7.8 11.24 9.03C11.24 10.26 10.24 11.26 9.01 11.26C7.78 11.26 6.78 10.26 6.78 9.03ZM5.58 9.03C5.58 10.93 7.12 12.47 9.01 12.47C10.91 12.47 12.45 10.93 12.45 9.03C12.45 7.14 10.91 5.6 9.01 5.6C7.12 5.6 5.58 7.14 5.58 9.03L5.58 9.03ZM11.78 5.46C11.78 5.62 11.83 5.78 11.92 5.91C12 6.04 12.13 6.14 12.28 6.2C12.42 6.27 12.58 6.28 12.74 6.25C12.89 6.22 13.04 6.14 13.15 6.03C13.26 5.92 13.34 5.78 13.37 5.62C13.4 5.46 13.39 5.3 13.32 5.16C13.26 5.01 13.16 4.89 13.03 4.8C12.9 4.71 12.74 4.66 12.58 4.66L12.58 4.66C12.37 4.66 12.17 4.75 12.02 4.9C11.87 5.05 11.78 5.25 11.78 5.46ZM6.31 14.48C5.66 14.45 5.31 14.34 5.07 14.25C4.76 14.12 4.53 13.98 4.3 13.75C4.07 13.51 3.92 13.29 3.8 12.98C3.71 12.74 3.6 12.39 3.57 11.74C3.54 11.03 3.53 10.82 3.53 9.03C3.53 7.25 3.54 7.04 3.57 6.33C3.6 5.68 3.71 5.33 3.8 5.09C3.92 4.78 4.07 4.55 4.3 4.32C4.53 4.09 4.76 3.94 5.07 3.82C5.31 3.73 5.66 3.62 6.31 3.59C7.02 3.56 7.23 3.55 9.01 3.55C10.8 3.55 11.01 3.56 11.72 3.59C12.37 3.62 12.72 3.73 12.96 3.82C13.27 3.94 13.49 4.09 13.73 4.32C13.96 4.55 14.11 4.78 14.23 5.09C14.32 5.32 14.43 5.68 14.46 6.33C14.49 7.04 14.5 7.25 14.5 9.03C14.5 10.82 14.49 11.03 14.46 11.74C14.43 12.39 14.32 12.74 14.23 12.98C14.11 13.29 13.96 13.51 13.73 13.75C13.49 13.98 13.27 14.13 12.96 14.25C12.72 14.34 12.37 14.45 11.72 14.48C11.01 14.51 10.8 14.52 9.01 14.52C7.23 14.52 7.02 14.51 6.31 14.48L6.31 14.48ZM6.26 2.39C5.54 2.42 5.06 2.53 4.63 2.7C4.19 2.87 3.82 3.1 3.45 3.47C3.08 3.84 2.85 4.21 2.68 4.65C2.51 5.08 2.4 5.56 2.37 6.28C2.33 6.99 2.33 7.22 2.33 9.03C2.33 10.85 2.33 11.08 2.37 11.79C2.4 12.5 2.51 12.99 2.68 13.41C2.85 13.85 3.08 14.23 3.45 14.6C3.82 14.97 4.19 15.2 4.63 15.37C5.06 15.53 5.54 15.65 6.26 15.68C6.97 15.71 7.2 15.72 9.01 15.72C10.83 15.72 11.06 15.71 11.77 15.68C12.48 15.65 12.97 15.53 13.39 15.37C13.83 15.2 14.21 14.97 14.58 14.6C14.95 14.23 15.18 13.85 15.35 13.41C15.51 12.99 15.63 12.5 15.66 11.79C15.69 11.08 15.7 10.85 15.7 9.03C15.7 7.22 15.69 6.99 15.66 6.28C15.63 5.56 15.51 5.08 15.35 4.65C15.18 4.21 14.95 3.84 14.58 3.47C14.21 3.1 13.83 2.87 13.39 2.7C12.97 2.53 12.48 2.42 11.77 2.39C11.06 2.35 10.83 2.35 9.01 2.35C7.2 2.35 6.97 2.35 6.26 2.39L6.26 2.39Z" fill="#FFFFFF" fill-opacity="1.000000" fill-rule="nonzero"/>
	</g>
</svg>
