<svg width="12.799805" height="12.800003" viewBox="0 0 12.7998 12.8" fill="none" xmlns="http://www.w3.org/2000/svg" xmlns:xlink="http://www.w3.org/1999/xlink">
	<desc>
			Created with Pixso.
	</desc>
	<defs/>
	<path id="Primary fill" d="M11.6 1.6C12.26 1.6 12.79 2.13 12.79 2.8L12.79 11.6C12.79 12.26 12.26 12.8 11.6 12.8L1.2 12.8C0.53 12.8 0 12.26 0 11.6L0 2.8C0 2.13 0.53 1.6 1.2 1.6L2.39 1.6L2.39 0.8C2.39 0.35 2.75 0 3.2 0C3.64 0 4 0.35 4 0.8L4 1.6L8.79 1.6L8.79 0.8C8.79 0.35 9.15 0 9.6 0C10.04 0 10.39 0.35 10.39 0.8L10.39 1.6L11.6 1.6ZM11.2 4.8L1.6 4.8L1.6 11.2L11.2 11.2L11.2 4.8Z" fill="#8C9196" fill-opacity="1.000000" fill-rule="evenodd"/>
</svg>
