<svg width="20.000000" height="16.000000" viewBox="0 0 20 16" fill="none" xmlns="http://www.w3.org/2000/svg" xmlns:xlink="http://www.w3.org/1999/xlink">
	<desc>
			Created with Pixso.
	</desc>
	<defs/>
	<path id="Primary fill" d="M19 9L1 9C0.73 9 0.48 8.89 0.29 8.7C0.1 8.51 0 8.26 0 8C0 7.73 0.1 7.48 0.29 7.29C0.48 7.1 0.73 7 1 7L19 7C19.26 7 19.51 7.1 19.7 7.29C19.89 7.48 20 7.73 20 8C20 8.26 19.89 8.51 19.7 8.7C19.51 8.89 19.26 9 19 9ZM19 2L1 2C0.73 2 0.48 1.89 0.29 1.7C0.1 1.51 0 1.26 0 1C0 0.73 0.1 0.48 0.29 0.29C0.48 0.1 0.73 0 1 0L19 0C19.26 0 19.51 0.1 19.7 0.29C19.89 0.48 20 0.73 20 1C20 1.26 19.89 1.51 19.7 1.7C19.51 1.89 19.26 2 19 2ZM19 16L1 16C0.73 16 0.48 15.89 0.29 15.7C0.1 15.51 0 15.26 0 15C0 14.73 0.1 14.48 0.29 14.29C0.48 14.1 0.73 14 1 14L19 14C19.26 14 19.51 14.1 19.7 14.29C19.89 14.48 20 14.73 20 15C20 15.26 19.89 15.51 19.7 15.7C19.51 15.89 19.26 16 19 16Z" fill="#5C5F62" fill-opacity="1.000000" fill-rule="nonzero"/>
</svg>
