<svg width="12.799805" height="12.800049" viewBox="0 0 12.7998 12.8" fill="none" xmlns="http://www.w3.org/2000/svg" xmlns:xlink="http://www.w3.org/1999/xlink">
	<desc>
			Created with Pixso.
	</desc>
	<defs/>
	<path id="Primary fill" d="M6.39 12.8C2.87 12.8 0 9.92 0 6.39C0 2.87 2.87 0 6.39 0C9.92 0 12.79 2.87 12.79 6.39C12.79 9.92 9.92 12.8 6.39 12.8ZM8.23 9.03C8.02 9.03 7.82 8.95 7.66 8.8L5.83 6.96C5.68 6.81 5.6 6.61 5.6 6.39L5.6 3.19C5.6 2.75 5.95 2.39 6.39 2.39C6.84 2.39 7.2 2.75 7.2 3.19L7.2 6.06L8.79 7.66C9.11 7.98 9.11 8.48 8.79 8.8C8.64 8.95 8.43 9.03 8.23 9.03Z" fill="#6D7175" fill-opacity="1.000000" fill-rule="evenodd"/>
</svg>
