<svg width="11.200195" height="16.000000" viewBox="0 0 11.2002 16" fill="none" xmlns="http://www.w3.org/2000/svg" xmlns:xlink="http://www.w3.org/1999/xlink">
	<desc>
			Created with Pixso.
	</desc>
	<defs/>
	<path id="Primary fill" d="M0 1.19C0 0.53 0.53 0 1.2 0L10 0C10.66 0 11.2 0.53 11.2 1.19L11.2 14.8C11.2 15.46 10.66 16 10 16L1.2 16C0.53 16 0 15.46 0 14.8L0 1.19ZM1.6 1.6L9.6 1.6L9.6 12.8L1.6 12.8L1.6 1.6ZM4.79 13.6C4.35 13.6 4 13.95 4 14.39C4 14.84 4.35 15.2 4.79 15.2L6.39 15.2C6.84 15.2 7.2 14.84 7.2 14.39C7.2 13.95 6.84 13.6 6.39 13.6L4.79 13.6Z" fill="#8C9196" fill-opacity="1.000000" fill-rule="evenodd"/>
</svg>
