<svg width="20.000000" height="20.000000" viewBox="0 0 20 20" fill="none" xmlns="http://www.w3.org/2000/svg" xmlns:xlink="http://www.w3.org/1999/xlink">
	<desc>
			Created with Pixso.
	</desc>
	<defs/>
	<path id="Primary fill" d="M12.8877 11.4729L17.7075 16.293C18.0986 16.6841 18.0986 17.3159 17.7075 17.707C17.5127 17.9021 17.2563 18 17.0005 18C16.7446 18 16.4883 17.9021 16.2935 17.707L11.4736 12.887C10.4927 13.585 9.29639 14 8.00049 14C4.6875 14 2.00049 11.313 2.00049 8C2.00049 4.68701 4.6875 2 8.00049 2C11.3135 2 14.0005 4.68701 14.0005 8C14.0005 9.2959 13.5854 10.4919 12.8877 11.4729ZM4.00049 8C4.00049 10.209 5.7915 12 8.00049 12C10.2095 12 12.0005 10.209 12.0005 8C12.0005 5.79102 10.2095 4 8.00049 4C5.7915 4 4.00049 5.79102 4.00049 8Z" clip-rule="evenodd" fill="#5C5F62" fill-opacity="1.000000" fill-rule="evenodd"/>
</svg>
