<svg width="12.500000" height="12.500000" viewBox="0 0 12.5 12.5" fill="none" xmlns="http://www.w3.org/2000/svg" xmlns:xlink="http://www.w3.org/1999/xlink">
	<desc>
			Created with Pixso.
	</desc>
	<defs/>
	<path id="Shape" d="M0.14 0.3L0.21 0.21C0.48 -0.05 0.9 -0.08 1.19 0.14L1.28 0.21L6.25 5.18L11.21 0.21C11.48 -0.05 11.9 -0.08 12.19 0.14L12.28 0.21C12.54 0.48 12.57 0.9 12.35 1.19L12.28 1.28L7.31 6.25L12.28 11.21C12.54 11.48 12.57 11.9 12.35 12.19L12.28 12.28C12.01 12.54 11.59 12.57 11.3 12.35L11.21 12.28L6.25 7.31L1.28 12.28C1.01 12.54 0.59 12.57 0.3 12.35L0.21 12.28C-0.05 12.01 -0.08 11.59 0.14 11.3L0.21 11.21L5.18 6.25L0.21 1.28C-0.05 1.01 -0.08 0.59 0.14 0.3L0.21 0.21L0.14 0.3Z" fill="#212121" fill-opacity="1.000000" fill-rule="nonzero"/>
</svg>
