<svg width="40.000000" height="40.000000" viewBox="0 0 40 40" fill="none" xmlns="http://www.w3.org/2000/svg" xmlns:xlink="http://www.w3.org/1999/xlink">
	<desc>
			Created with Pixso.
	</desc>
	<defs/>
	<path id="Shape" d="M20 0C31.04 0 40 8.95 40 20C40 31.04 31.04 40 20 40C8.95 40 0 31.04 0 20C0 8.95 8.95 0 20 0ZM28.63 13.61C28.17 13.16 27.45 13.13 26.96 13.52L26.86 13.61L16.75 23.73L13.13 20.11C12.64 19.62 11.85 19.62 11.36 20.11C10.91 20.57 10.87 21.29 11.27 21.78L11.36 21.88L15.86 26.38C16.32 26.83 17.04 26.86 17.53 26.47L17.63 26.38L28.63 15.38C29.12 14.89 29.12 14.1 28.63 13.61Z" fill="#008060" fill-opacity="1.000000" fill-rule="nonzero"/>
</svg>
